<svg width="45" height="74" viewBox="0 0 45 74" fill="none" xmlns="http://www.w3.org/2000/svg">
<path d="M28.5807 54.1921L40.8318 34.4929C40.8718 34.4291 40.9053 34.3621 40.9315 34.2927C43.047 30.8428 44.164 26.9018 44.164 22.8783C44.164 10.8077 34.3439 0.987549 22.2734 0.987549C10.203 0.987549 0.382094 10.8077 0.382094 22.8783C0.382094 26.9026 1.50073 30.8452 3.61787 34.2976C3.64239 34.3581 3.67098 34.4169 3.7053 34.4741L15.5167 54.2411C6.34786 55.5371 0.318359 59.3073 0.318359 63.8807C0.318359 69.5475 9.94807 73.9853 22.2408 73.9853C34.5334 73.9853 44.1632 69.5467 44.1632 63.8807C44.164 59.286 37.8534 55.4317 28.5807 54.1921ZM5.81836 33.1937C3.86546 30.0853 2.83344 26.5186 2.83344 22.8783C2.83344 12.1593 11.5537 3.43892 22.2734 3.43892C32.9924 3.43892 41.7126 12.1593 41.7126 22.8783C41.7126 26.5202 40.6806 30.087 38.7285 33.1937C38.6877 33.259 38.6542 33.3268 38.6272 33.3971L25.6841 54.2068C25.4896 54.5051 25.4512 54.5729 25.2134 54.9635L21.945 60.2192L5.92786 33.4143C5.89926 33.3383 5.86249 33.2639 5.81836 33.1937ZM22.2416 71.5339C10.7668 71.5339 2.77052 67.4998 2.77052 63.8807C2.77052 60.5959 8.79266 57.5006 16.8927 56.5421L20.8721 63.2025C21.0919 63.5694 21.4857 63.7958 21.9131 63.799C21.9164 63.799 21.9204 63.799 21.9237 63.799C22.347 63.799 22.7408 63.58 22.9647 63.2205L27.1483 56.4939C35.3775 57.3854 41.7118 60.5591 41.7118 63.8807C41.7126 67.5006 33.7163 71.5339 22.2416 71.5339Z" fill="#CA342E"/>
<path d="M30.2011 22.8783C30.2011 18.4895 26.6304 14.9187 22.2416 14.9187C17.8529 14.9187 14.2821 18.4895 14.2821 22.8783C14.2821 27.2671 17.8529 30.8379 22.2416 30.8379C26.6304 30.8379 30.2011 27.2671 30.2011 22.8783ZM16.7335 22.8783C16.7335 19.8411 19.2044 17.3701 22.2416 17.3701C25.2788 17.3701 27.7498 19.8411 27.7498 22.8783C27.7498 25.9156 25.2797 28.3865 22.2416 28.3865C19.2036 28.3865 16.7335 25.9156 16.7335 22.8783Z" fill="#CA342E"/>
</svg>
