<svg width="71" height="76" viewBox="0 0 71 76" fill="none" xmlns="http://www.w3.org/2000/svg">
<path d="M56.9206 12.4298C52.8036 8.7342 47.4919 6.86803 41.9875 7.17512C36.4735 7.48221 31.4086 9.92494 27.7259 14.0527C20.1233 22.576 20.8498 35.7162 29.3453 43.3436C33.2853 46.8799 38.2115 48.6192 43.1229 48.6192C48.8044 48.6192 54.4632 46.2902 58.5409 41.7189C66.1426 33.1973 65.4162 20.0572 56.9206 12.4298ZM56.5901 39.9699C49.9511 47.4145 38.5106 48.0514 31.0894 41.3873C23.6682 34.7249 23.0343 23.2479 29.6741 15.8034C32.8911 12.1971 37.3159 10.0632 42.1314 9.79545C42.4741 9.77708 42.8142 9.76746 43.1543 9.76746C47.601 9.76746 51.8357 11.3869 55.1756 14.3852C62.5968 21.0484 63.2308 32.5254 56.5901 39.9699Z" fill="#BA302B"/>
<path d="M31.9982 17.8508C31.5159 18.3915 31.5621 19.2209 32.1002 19.7039C32.3505 19.9279 32.6618 20.0381 32.9723 20.0381C33.3315 20.0381 33.6891 19.8911 33.9472 19.6006C38.5028 14.4938 46.3479 14.0581 51.438 18.6269C51.9761 19.1107 52.8019 19.0643 53.2851 18.5245C53.7664 17.9838 53.7202 17.1544 53.1822 16.6715C47.0167 11.1368 37.5139 11.667 31.9982 17.8508Z" fill="#BA302B"/>
<path d="M70.949 26.1962C70.5051 18.7666 67.2044 11.9563 61.6546 7.0175C56.1049 2.07868 48.9767 -0.388544 41.5642 0.0497816C34.1596 0.495107 27.3706 3.80661 22.4487 9.37448C12.5814 20.5356 13.2913 37.4956 23.8309 47.8028L19.3198 52.9665L17.8731 51.6795C17.3333 51.1983 16.51 51.2473 16.0304 51.7862L0.333393 69.3849C0.101426 69.6438 -0.0171734 69.9851 0.00201184 70.3324C0.0211971 70.6797 0.177296 71.0061 0.435424 71.2379L5.3669 75.6658C5.61718 75.8898 5.9285 76 6.23896 76C6.59824 76 6.95579 75.8521 7.21392 75.5626L22.9319 57.9412C23.1638 57.6813 23.2833 57.3392 23.2632 56.9901C23.2432 56.6428 23.0853 56.3156 22.8255 56.0846L21.2776 54.7075L25.7861 49.5474C30.742 53.5693 36.8263 55.7277 43.1888 55.7277C43.7531 55.7277 44.3208 55.7102 44.8885 55.676C52.2931 55.2298 59.0821 51.9183 64.0048 46.3505C68.9276 40.7826 71.3929 33.6259 70.949 26.1962ZM6.13693 72.8346L3.15537 70.1574L17.1118 54.5107L20.1064 57.1747L6.13693 72.8346ZM62.0471 44.6094C57.5882 49.6532 51.4385 52.6524 44.7315 53.0557C38.0254 53.4704 31.5617 51.2175 26.5343 46.745C16.1569 37.5105 15.202 21.5269 24.4065 11.1155C28.8653 6.07173 35.0151 3.07257 41.722 2.66924C42.2366 2.63774 42.7493 2.62287 43.2612 2.62287C49.4127 2.62287 55.2782 4.85037 59.9201 8.98078C64.9475 13.4542 67.9369 19.624 68.3389 26.3528C68.7401 33.0826 66.505 39.5665 62.0471 44.6094Z" fill="#BA302B"/>
</svg>
