<svg width="86" height="86" viewBox="0 0 86 86" fill="none" xmlns="http://www.w3.org/2000/svg">
<path d="M72.8021 62.1584H68.9704V12.3465C68.9704 12.0078 68.8358 11.6829 68.5963 11.4434C68.3568 11.2038 68.0319 11.0693 67.6932 11.0693H30.6536V8.94056C30.6536 8.60182 30.519 8.27695 30.2795 8.03742C30.04 7.79789 29.7151 7.66333 29.3763 7.66333C29.0376 7.66333 28.7127 7.79789 28.4732 8.03742C28.2337 8.27695 28.0991 8.60182 28.0991 8.94056V11.0693H17.4556C17.1168 11.0693 16.7919 11.2038 16.5524 11.4434C16.3129 11.6829 16.1783 12.0078 16.1783 12.3465V24.693H13.1981C12.8594 24.693 12.5345 24.8276 12.295 25.0671C12.0555 25.3066 11.9209 25.6315 11.9209 25.9703C11.9209 26.309 12.0555 26.6339 12.295 26.8734C12.5345 27.1129 12.8594 27.2475 13.1981 27.2475H16.1783V74.5049C16.1783 74.8436 16.3129 75.1685 16.5524 75.408C16.7919 75.6476 17.1168 75.7821 17.4556 75.7821H55.3466V80.4653C55.3466 80.804 55.4812 81.1289 55.7207 81.3684C55.9603 81.608 56.2851 81.7425 56.6239 81.7425C56.9626 81.7425 57.2875 81.608 57.527 81.3684C57.7665 81.1289 57.9011 80.804 57.9011 80.4653V75.7821H67.6932C68.0319 75.7821 68.3568 75.6476 68.5963 75.408C68.8358 75.1685 68.9704 74.8436 68.9704 74.5049V64.7128H72.8021C73.1408 64.7128 73.4657 64.5783 73.7052 64.3387C73.9447 64.0992 74.0793 63.7743 74.0793 63.4356C74.0793 63.0969 73.9447 62.772 73.7052 62.5325C73.4657 62.2929 73.1408 62.1584 72.8021 62.1584ZM18.7328 13.6237H28.0991V24.693H18.7328V13.6237ZM18.7328 73.2277V27.2475H29.3763C29.7151 27.2475 30.04 27.1129 30.2795 26.8734C30.519 26.6339 30.6536 26.309 30.6536 25.9703V13.6237H66.4159V62.1584H56.6239C56.2851 62.1584 55.9603 62.2929 55.7207 62.5325C55.4812 62.772 55.3466 63.0969 55.3466 63.4356V73.2277H18.7328ZM66.4159 73.2277H57.9011V64.7128H66.4159V73.2277Z" fill="#CA342E"/>
<path d="M62.1583 23.4158C62.1583 22.4896 61.8837 21.5842 61.3691 20.814C60.8545 20.0439 60.1231 19.4436 59.2673 19.0892C58.4116 18.7347 57.47 18.642 56.5615 18.8227C55.6531 19.0034 54.8186 19.4494 54.1637 20.1043C53.5087 20.7593 53.0627 21.5938 52.882 22.5022C52.7013 23.4106 52.794 24.3523 53.1485 25.208C53.5029 26.0637 54.1032 26.7952 54.8733 27.3097C55.6435 27.8243 56.5489 28.099 57.4752 28.099C58.7165 28.0968 59.9064 27.6026 60.7842 26.7249C61.662 25.8471 62.1561 24.6572 62.1583 23.4158ZM55.3464 23.4158C55.3464 22.9948 55.4713 22.5833 55.7052 22.2332C55.9391 21.8831 56.2716 21.6103 56.6605 21.4492C57.0495 21.288 57.4775 21.2459 57.8905 21.328C58.3034 21.4102 58.6827 21.6129 58.9804 21.9106C59.2781 22.2083 59.4808 22.5876 59.563 23.0005C59.6451 23.4135 59.603 23.8415 59.4418 24.2305C59.2807 24.6194 59.0079 24.9519 58.6578 25.1858C58.3077 25.4197 57.8962 25.5445 57.4752 25.5445C56.9106 25.5445 56.3691 25.3203 55.9699 24.9211C55.5707 24.5219 55.3464 23.9804 55.3464 23.4158Z" fill="#CA342E"/>
<path d="M26.8218 59.604C25.8956 59.604 24.9902 59.8787 24.22 60.3933C23.4499 60.9079 22.8496 61.6393 22.4952 62.495C22.1407 63.3507 22.048 64.2924 22.2287 65.2008C22.4094 66.1093 22.8554 66.9437 23.5103 67.5987C24.1653 68.2536 24.9998 68.6996 25.9082 68.8803C26.8166 69.061 27.7583 68.9683 28.614 68.6138C29.4697 68.2594 30.2012 67.6591 30.7158 66.889C31.2303 66.1189 31.505 65.2134 31.505 64.2872C31.5028 63.0458 31.0086 61.8559 30.1309 60.9782C29.2531 60.1004 28.0632 59.6063 26.8218 59.604ZM26.8218 66.4159C26.4008 66.4159 25.9893 66.291 25.6392 66.0571C25.2891 65.8232 25.0163 65.4908 24.8552 65.1018C24.6941 64.7128 24.6519 64.2848 24.734 63.8719C24.8162 63.4589 25.0189 63.0796 25.3166 62.7819C25.6143 62.4842 25.9936 62.2815 26.4065 62.1994C26.8195 62.1172 27.2475 62.1594 27.6365 62.3205C28.0254 62.4816 28.3579 62.7545 28.5918 63.1045C28.8257 63.4546 28.9506 63.8661 28.9506 64.2872C28.9506 64.8517 28.7263 65.3932 28.3271 65.7924C27.9279 66.1916 27.3864 66.4159 26.8218 66.4159Z" fill="#CA342E"/>
</svg>
