<svg width="85" height="85" viewBox="0 0 85 85" fill="none" xmlns="http://www.w3.org/2000/svg">
<path d="M73.7935 52.036H32.541V10.7844C32.541 10.0833 31.9735 9.51575 31.2724 9.51575H10.7835C10.0824 9.51575 9.51489 10.0833 9.51489 10.7844V53.3047V73.7943C9.51489 74.4955 10.0824 75.063 10.7835 75.063H73.7935C74.4938 75.063 75.0621 74.4955 75.0621 73.7943V53.3047C75.0621 52.6036 74.4938 52.036 73.7935 52.036ZM30.0037 12.0531V52.036H12.0522V43.558H18.2086C18.9097 43.558 19.4772 42.9905 19.4772 42.2894C19.4772 41.5882 18.9097 41.0207 18.2086 41.0207H12.0522V32.7998H23.3365C24.0376 32.7998 24.6051 32.2323 24.6051 31.5312C24.6051 30.83 24.0376 30.2625 23.3365 30.2625H12.0522V22.0416H18.2086C18.9097 22.0416 19.4772 21.4741 19.4772 20.773C19.4772 20.0718 18.9097 19.5043 18.2086 19.5043H12.0522V12.0531H30.0037ZM72.5248 72.5257H12.0522V54.5734H72.5248V72.5257Z" fill="#CA342E"/>
<path d="M63.5462 68.9168C66.5064 68.9168 68.9143 66.508 68.9143 63.5478C68.9143 60.5876 66.5055 58.1797 63.5462 58.1797C60.586 58.1797 58.1772 60.5876 58.1772 63.5478C58.1772 66.508 60.586 68.9168 63.5462 68.9168ZM63.5462 60.717C65.1066 60.717 66.377 61.9865 66.377 63.5478C66.377 65.1091 65.1066 66.3794 63.5462 66.3794C61.9849 66.3794 60.7146 65.1091 60.7146 63.5478C60.7146 61.9873 61.9849 60.717 63.5462 60.717Z" fill="#CA342E"/>
</svg>
