<svg width="86" height="86" viewBox="0 0 86 86" fill="none" xmlns="http://www.w3.org/2000/svg">
<path d="M42.9999 45.58C35.3618 45.5891 28.0392 48.6273 22.6382 54.0283C17.2373 59.4292 14.199 66.7519 14.1899 74.3899C14.1899 74.7321 14.3259 75.0602 14.5678 75.3021C14.8097 75.544 15.1378 75.6799 15.4799 75.6799H70.5199C70.8621 75.6799 71.1902 75.544 71.4321 75.3021C71.674 75.0602 71.8099 74.7321 71.8099 74.3899C71.8008 66.7519 68.7626 59.4292 63.3616 54.0283C57.9607 48.6273 50.638 45.5891 42.9999 45.58ZM53.8617 50.525L42.9999 61.3867L32.1381 50.525C35.5491 48.9681 39.2548 48.1624 43.0042 48.1624C46.7537 48.1624 50.4594 48.9681 53.8703 50.525H53.8617ZM29.7387 51.772L42.0883 64.1215H42.1399V73.0999H16.8043C17.0227 68.7512 18.3192 64.525 20.5771 60.8019C22.835 57.0788 25.9833 53.9757 29.7387 51.772ZM44.7199 73.0999V63.3132L56.2611 51.772C60.0101 53.9798 63.1517 57.0847 65.4034 60.8076C67.6551 64.5304 68.9464 68.7544 69.1611 73.0999H44.7199Z" fill="#CA342E"/>
<path d="M29.24 33.54C30.7767 35.9798 32.9228 37.9769 35.4667 39.3345C38.0106 40.692 40.8643 41.3631 43.7466 41.2815C46.6289 41.1999 49.4401 40.3684 51.9031 38.8691C54.3661 37.3698 56.3958 35.2544 57.792 32.7316H57.8694C59.7528 31.8716 61.619 29.0938 61.8512 28.7498C63.0708 26.8999 63.695 24.7212 63.64 22.5062C63.64 11.5154 54.4036 2.57996 43.0602 2.57996H42.9484C31.5964 2.57996 22.36 11.5154 22.36 22.5062V26.66C22.3593 27.5597 22.5393 28.4503 22.8894 29.2791C23.2396 30.1079 23.7526 30.8579 24.3982 31.4846C25.6887 32.7655 27.4221 33.5014 29.24 33.54ZM43.258 38.7C40.5788 38.711 37.9535 37.9484 35.6972 36.5037C33.4409 35.059 31.6496 32.9937 30.5386 30.5558C30.5229 30.4071 30.5229 30.2572 30.5386 30.1086L30.7622 29.971C34.7698 27.5114 39.7492 24.4412 42.6904 21.6204C45.881 18.5588 49.2006 14.8522 50.611 13.2526C52.6175 14.4733 54.2764 16.1894 55.4285 18.2361C56.5806 20.2828 57.1872 22.5913 57.19 24.94C57.1627 28.6107 55.6806 32.1209 53.0689 34.7004C50.4571 37.2799 46.9288 38.7183 43.258 38.7ZM24.94 22.5062C24.94 12.9 33.0154 5.15996 42.9398 5.15996H43.0516C52.9846 5.15996 61.06 12.9 61.06 22.5062C61.1051 24.2156 60.615 25.8963 59.6582 27.3136L59.5808 27.434C60.1073 24.0611 59.5602 20.6082 58.0169 17.5633C56.4736 14.5184 54.0122 12.0357 50.9808 10.4662C50.7229 10.3316 50.4272 10.288 50.1415 10.3427C49.8558 10.3973 49.597 10.5469 49.407 10.7672C49.407 10.8188 45.0554 15.8326 40.9618 19.7542C38.184 22.36 33.3336 25.37 29.4378 27.7694L29.0422 28.0102C28.6438 28.3108 28.3333 28.7126 28.1427 29.1739C27.9522 29.6352 27.8886 30.139 27.9586 30.6332C27.9586 30.6332 27.9586 30.6934 27.9586 30.7192C27.3116 30.4992 26.7233 30.1345 26.2386 29.6528C25.8317 29.2671 25.507 28.8032 25.2839 28.2889C25.0607 27.7746 24.9437 27.2206 24.94 26.66V22.5062Z" fill="#CA342E"/>
<path d="M37.41 69.66C38.5974 69.66 39.56 68.6974 39.56 67.51C39.56 66.3226 38.5974 65.36 37.41 65.36C36.2226 65.36 35.26 66.3226 35.26 67.51C35.26 68.6974 36.2226 69.66 37.41 69.66Z" fill="#CA342E"/>
</svg>
