<svg width="79" height="79" viewBox="0 0 79 79" fill="none" xmlns="http://www.w3.org/2000/svg">
<path d="M78.9128 10.003C78.7254 9.51463 78.2651 9.18844 77.7465 9.17636L70.1398 8.99687L70.3118 1.32363C70.3237 0.800695 70.0208 0.320902 69.5459 0.110346C69.0702 -0.101073 68.5166 -0.00356195 68.1409 0.358871L59.0513 9.11509C58.8049 9.35153 58.662 9.67772 58.6535 10.0203L58.4584 18.213L56.2071 20.4834C50.2329 14.8985 42.2445 11.4761 33.4766 11.4761C15.0176 11.4761 0 26.6249 0 45.2445C0 63.8572 15.0176 79 33.4766 79C51.9357 79 66.9533 63.8572 66.9533 45.2445C66.9533 36.3985 63.5598 28.3404 58.022 22.3137L60.0011 20.3177L68.5902 20.5197C68.6004 20.5197 68.6098 20.5197 68.6201 20.5197C68.9495 20.5197 69.267 20.3919 69.5057 20.1615L78.6022 11.407C78.9787 11.0455 79.101 10.4915 78.9128 10.003ZM64.3855 45.2445C64.3855 62.4299 50.5196 76.4112 33.4758 76.4112C16.432 76.4112 2.56611 62.4299 2.56611 45.2445C2.56611 28.0522 16.432 14.0649 33.4758 14.0649C41.5369 14.0649 48.8836 17.1965 54.3923 22.3128L49.6417 27.1039C45.3531 23.2137 39.6853 20.8407 33.4766 20.8407C20.1378 20.8407 9.28642 31.7879 9.28642 45.2436C9.28642 58.696 20.1378 69.6397 33.4766 69.6397C46.8197 69.6397 57.6737 58.696 57.6737 45.2436C57.6737 38.9787 55.319 33.2592 51.4565 28.9333L56.2063 24.1431C61.2803 29.7004 64.3855 37.1131 64.3855 45.2445ZM41.2041 45.2402C41.2041 49.5368 37.7378 53.0317 33.4775 53.0317C29.2172 53.0317 25.7509 49.5359 25.7509 45.2402C25.7509 40.9436 29.2172 37.4479 33.4775 37.4479C35.1443 37.4479 36.6854 37.9881 37.9492 38.8967L32.5679 44.3238C32.0665 44.8294 32.0665 45.6484 32.5679 46.154C32.8186 46.4069 33.1472 46.5329 33.4758 46.5329C33.8044 46.5329 34.1329 46.4069 34.3836 46.154L39.7649 40.727C40.6667 42.0025 41.2041 43.5575 41.2041 45.2402ZM39.7794 37.0501C38.0356 35.6823 35.8519 34.8591 33.4766 34.8591C27.8011 34.8591 23.1831 39.5163 23.1831 45.2402C23.1831 50.9641 27.8002 55.6205 33.4766 55.6205C39.1531 55.6205 43.7702 50.9641 43.7702 45.2402C43.7702 42.843 42.9522 40.639 41.5942 38.8804L49.6374 30.7679C53.0361 34.6226 55.1059 39.6932 55.1059 45.2445C55.1059 57.2695 45.4028 67.0518 33.4758 67.0518C21.5522 67.0518 11.8525 57.2695 11.8525 45.2445C11.8525 33.216 21.5522 23.4303 33.4758 23.4303C38.9768 23.4303 44.0012 25.5152 47.8226 28.9385L39.7794 37.0501ZM68.1179 17.9196L62.509 17.7876L66.576 13.6861C67.0774 13.1804 67.0774 12.3606 66.576 11.8558C66.0745 11.3501 65.2625 11.3501 64.7611 11.8558L61.0886 15.5595L61.2059 10.6192L65.3712 6.61085L65.372 6.60998L67.6746 4.39051L67.5437 10.2326C67.5274 10.9471 68.0896 11.5391 68.7972 11.5555L74.5883 11.6918L68.1179 17.9196Z" fill="#CA342E"/>
</svg>
