<svg width="86" height="47" viewBox="0 0 86 47" fill="none" xmlns="http://www.w3.org/2000/svg">
<path d="M58.1306 33.3331C55.5488 31.2242 51.8781 31.3182 49.4064 33.3752L33.0524 20.3642C33.2566 19.5833 33.3282 18.7657 33.2449 17.9382C33.0605 16.1149 32.1775 14.4725 30.7572 13.3137C27.827 10.9218 23.4963 11.3606 21.1044 14.2907C18.956 16.9227 19.0975 20.6794 21.2709 23.1519L11.1354 34.6979C9.72764 33.5821 7.97241 33.0591 6.18674 33.2472C4.36346 33.4307 2.72107 34.3146 1.56226 35.734C-0.829677 38.6651 -0.390872 42.9949 2.53928 45.3869C3.77599 46.3961 5.28943 46.9334 6.86465 46.9334C7.09838 46.9334 7.33301 46.9218 7.56853 46.8976C9.39182 46.7131 11.0342 45.8302 12.193 44.4099C13.3518 42.9904 13.8882 41.2048 13.7038 39.3815C13.6097 38.4501 13.3303 37.5663 12.8924 36.7693L23.4211 24.7755C24.3703 25.2385 25.3903 25.4866 26.4139 25.4866C28.4055 25.4866 30.3811 24.626 31.7351 22.9675C31.7718 22.9227 31.8014 22.8752 31.8363 22.8295L47.7148 35.4627C46.2327 38.2881 46.8882 41.8684 49.4539 43.963C50.7256 45 52.2596 45.5051 53.7855 45.5051C55.7772 45.5051 57.7527 44.6454 59.1067 42.986C60.2655 41.5666 60.802 39.7809 60.6175 37.9576C60.4339 36.1343 59.5491 34.4919 58.1306 33.3331ZM10.1109 42.7119C9.40614 43.5761 8.40674 44.1134 7.29719 44.2254C6.19211 44.3409 5.10226 44.0113 4.23719 43.3066C2.4542 41.8513 2.18823 39.2176 3.64256 37.4328C5.09779 35.6498 7.73331 35.3839 9.5154 36.8391C9.68734 36.9797 9.83599 37.14 9.98197 37.3021C10.0563 37.4472 10.1566 37.5824 10.2873 37.697C10.6894 38.2728 10.9563 38.9346 11.0297 39.6528C11.1426 40.7615 10.8166 41.8478 10.1109 42.7119ZM29.653 21.2687C28.9482 22.1319 27.9488 22.6692 26.8402 22.7821C25.7306 22.894 24.6444 22.5681 23.7802 21.8633C21.9972 20.4081 21.7303 17.7734 23.1855 15.9904C24.6408 14.2066 27.2763 13.9406 29.0584 15.3958C29.9226 16.1006 30.4599 17.1 30.5718 18.2095C30.6847 19.3182 30.3578 20.4045 29.653 21.2687ZM57.0256 41.2872C55.5712 43.0693 52.9366 43.3379 51.1527 41.8818C49.3697 40.4266 49.1029 37.7919 50.5581 36.0081C51.382 34.9988 52.5838 34.4758 53.7954 34.4758C54.7232 34.4758 55.6572 34.783 56.4309 35.4143C58.2139 36.8695 58.4808 39.5033 57.0256 41.2872Z" fill="#CA342E"/>
<path d="M64.3277 27.5551C63.7474 27.093 62.9021 27.1915 62.4409 27.7701L60.4044 30.3321C59.9423 30.9124 60.0391 31.7587 60.6194 32.219C60.8665 32.416 61.1612 32.5109 61.4549 32.5109C61.8498 32.5109 62.2421 32.3372 62.5071 32.0041L64.5435 29.442C65.0047 28.8617 64.9089 28.0154 64.3277 27.5551Z" fill="#CA342E"/>
<path d="M72.7931 16.9164C72.2146 16.4552 71.3674 16.551 70.9062 17.1313L66.674 22.4507C66.2119 23.031 66.3086 23.8764 66.8889 24.3385C67.1352 24.5355 67.4307 24.6304 67.7244 24.6304C68.1193 24.6304 68.5116 24.4567 68.7767 24.1236L73.0089 18.8042C73.4692 18.2239 73.3734 17.3785 72.7931 16.9164Z" fill="#CA342E"/>
<path d="M79.0634 9.0349C78.4849 8.57281 77.6377 8.67042 77.1765 9.24982L75.1383 11.8119C74.6762 12.3922 74.773 13.2376 75.3533 13.6997C75.5995 13.8967 75.895 13.9916 76.1888 13.9916C76.5837 13.9916 76.9759 13.8179 77.241 13.4847L79.2792 10.9227C79.7395 10.3424 79.6437 9.49699 79.0634 9.0349Z" fill="#CA342E"/>
<path d="M84.9675 0.853376C84.6048 0.595465 84.1382 0.535465 83.7236 0.689495L73.6642 4.41666C72.9693 4.67457 72.6138 5.44741 72.8717 6.14323C73.1287 6.83815 73.9006 7.19367 74.5982 6.93666L82.8147 3.89278L82.6633 12.6537C82.6508 13.3961 83.2418 14.0068 83.9842 14.0202C83.9923 14.0202 84.0003 14.0202 84.0075 14.0202C84.7382 14.0202 85.3364 13.4337 85.3499 12.7002L85.5344 1.97367C85.5415 1.5286 85.3302 1.1095 84.9675 0.853376Z" fill="#CA342E"/>
</svg>
