<svg width="90" height="90" viewBox="0 0 90 90" fill="none" xmlns="http://www.w3.org/2000/svg">
<g opacity="0.99">
<path d="M84.4692 44.5116H77.5465V32.8268C77.5465 32.0833 76.9438 31.4815 76.2013 31.4815H54.5104V19.8227C54.5104 19.0792 53.9078 18.4774 53.1652 18.4774H5.21415C4.47067 18.4774 3.8689 19.0792 3.8689 19.8227V63.7362C3.8689 64.4787 4.47067 65.0814 5.21415 65.0814H16.4031C16.8712 68.5333 19.8316 71.2059 23.4127 71.2059C26.9848 71.2059 29.9399 68.5333 30.4062 65.0814H53.1652H61.8071C62.2752 68.5351 65.2357 71.2077 68.8167 71.2077C72.3969 71.2077 75.3582 68.5351 75.8255 65.0814H84.4683C85.2109 65.0814 85.8135 64.4787 85.8135 63.7362V45.8569C85.8144 45.1143 85.2118 44.5116 84.4692 44.5116ZM23.4127 68.5154C20.9913 68.5154 19.0218 66.5477 19.0218 64.129C19.0218 61.7084 20.9913 59.7381 23.4127 59.7381C25.8252 59.7381 27.7875 61.7075 27.7875 64.129C27.7875 66.5477 25.8252 68.5154 23.4127 68.5154ZM23.4127 57.0485C20.1088 57.0485 17.334 59.3255 16.5564 62.3909H6.5594V21.1679H51.8199V32.8268V45.8569V62.3918H30.2538C29.4771 59.3264 26.7086 57.0485 23.4127 57.0485ZM68.8167 68.5172C66.3953 68.5172 64.4258 66.5486 64.4258 64.1281C64.4258 61.7075 66.3953 59.7399 68.8167 59.7399C71.2373 59.7399 73.2076 61.7075 73.2076 64.1281C73.2076 66.5486 71.2382 68.5172 68.8167 68.5172ZM83.1239 62.3909H75.6739C74.8955 59.3273 72.1216 57.0503 68.8176 57.0503C65.5128 57.0503 62.7389 59.3273 61.9604 62.3909H54.5113V45.8569V34.172H74.8569V45.8569C74.8569 46.5994 75.4596 47.2021 76.2022 47.2021H83.1248V62.3909H83.1239Z" fill="#CA342E"/>
</g>
</svg>
