<svg width="20" height="23" viewBox="0 0 20 23" fill="none" xmlns="http://www.w3.org/2000/svg">
<path d="M10.75 1C10.75 0.585786 10.4142 0.25 10 0.25C9.58579 0.25 9.25 0.585786 9.25 1L10.75 1ZM9.46967 16.5303C9.76256 16.8232 10.2374 16.8232 10.5303 16.5303L15.3033 11.7574C15.5962 11.4645 15.5962 10.9896 15.3033 10.6967C15.0104 10.4038 14.5355 10.4038 14.2426 10.6967L10 14.9393L5.75736 10.6967C5.46447 10.4038 4.98959 10.4038 4.6967 10.6967C4.40381 10.9896 4.40381 11.4645 4.6967 11.7574L9.46967 16.5303ZM9.25 1L9.25 16L10.75 16L10.75 1L9.25 1Z" fill="white"/>
<path d="M19.25 19V22.25H0.75V19" stroke="white" stroke-width="1.5" stroke-linecap="round" stroke-linejoin="round"/>
</svg>
