<svg width="79" height="76" viewBox="0 0 79 76" fill="none" xmlns="http://www.w3.org/2000/svg">
<path d="M79 0.502441H34.5142V4.44471H79V0.502441Z" fill="#CA342E"/>
<path d="M79 36.0601H0V40.0023H79V36.0601Z" fill="#CA342E"/>
<path d="M79 27.1709H0V31.1132H79V27.1709Z" fill="#CA342E"/>
<path d="M79 18.2812H34.5142V22.2235H79V18.2812Z" fill="#CA342E"/>
<path d="M79 9.43066H34.5142V13.3729H79V9.43066Z" fill="#CA342E"/>
<path d="M16.8513 20.291C16.8513 21.6437 15.7305 22.7645 14.3778 22.7645C12.9864 22.7645 11.9042 21.6437 11.9042 20.291C11.9042 18.8996 13.025 17.8174 14.3778 17.8174C15.7305 17.7787 16.8513 18.8996 16.8513 20.291Z" fill="#304981"/>
<path d="M16.8513 11.4018C16.8513 12.7932 15.7305 13.8754 14.3778 13.8754C12.9864 13.8754 11.9042 12.7545 11.9042 11.4018C11.9042 10.0491 13.025 8.92822 14.3778 8.92822C15.7305 8.92822 16.8513 10.0104 16.8513 11.4018Z" fill="#304981"/>
<path d="M16.8513 2.47358C16.8513 3.86497 15.7305 4.94716 14.3778 4.94716C12.9864 4.94716 11.9042 3.82632 11.9042 2.47358C11.9042 1.08219 13.025 0 14.3778 0C15.7305 0 16.8513 1.12084 16.8513 2.47358Z" fill="#304981"/>
<path d="M4.94716 20.291C4.94716 21.6438 3.82632 22.7646 2.47358 22.7646C1.12084 22.7646 0 21.6438 0 20.291C0 18.8997 1.12084 17.7788 2.47358 17.7788C3.86497 17.7788 4.94716 18.8997 4.94716 20.291Z" fill="#304981"/>
<path d="M4.94716 11.4018C4.94716 12.7932 3.82632 13.8754 2.47358 13.8754C1.12084 13.8754 0 12.7545 0 11.4018C0 10.0491 1.12084 8.92822 2.47358 8.92822C3.86497 8.92822 4.94716 10.0104 4.94716 11.4018Z" fill="#304981"/>
<path d="M4.94716 2.47358C4.94716 3.86497 3.82632 4.94716 2.47358 4.94716C1.12084 4.98581 0 3.86497 0 2.47358C0 1.12084 1.12084 0 2.47358 0C3.86497 0 4.94716 1.12084 4.94716 2.47358Z" fill="#304981"/>
<path d="M28.6394 20.291C28.6394 21.6437 27.5186 22.7645 26.1658 22.7645C24.8131 22.7645 23.6923 21.6437 23.6923 20.291C23.6923 18.8996 24.8131 17.8174 26.1658 17.8174C27.5186 17.7787 28.6394 18.8996 28.6394 20.291Z" fill="#304981"/>
<path d="M28.6394 11.4018C28.6394 12.7932 27.5186 13.8754 26.1658 13.8754C24.8131 13.8754 23.6923 12.7545 23.6923 11.4018C23.6923 10.0491 24.8131 8.92822 26.1658 8.92822C27.5186 8.92822 28.6394 10.0104 28.6394 11.4018Z" fill="#304981"/>
<path d="M28.6394 2.47358C28.6394 3.86497 27.5186 4.94716 26.1658 4.94716C24.8131 4.94716 23.6923 3.82632 23.6923 2.47358C23.6923 1.08219 24.8131 0 26.1658 0C27.5186 0 28.6394 1.12084 28.6394 2.47358Z" fill="#304981"/>
<path d="M1.04346 64.3901H4.67653L7.22741 71.5403H7.26606L9.77829 64.3901H13.45V75.3667H11.0151V66.941H10.9764L8.11635 75.3667H6.26117L3.47839 66.941H3.43974V75.3667H1.04346V64.3901Z" fill="#304981"/>
<path d="M21.7597 67.5594L20.4456 70.9606H23.1124L21.7597 67.5594ZM20.8321 64.3901H22.8419L27.6344 75.3667H24.8903L23.9627 73.0477H19.7112L18.7837 75.3667H16.1168L20.8321 64.3901Z" fill="#304981"/>
<path d="M6.26118 58.6701C8.30962 58.6701 9.66236 57.1627 9.66236 55.1143C9.66236 53.0658 8.30962 51.5972 6.26118 51.5972C4.21275 51.5972 2.86001 53.1045 2.86001 55.1143C2.86001 57.1627 4.21275 58.6701 6.26118 58.6701ZM6.26118 49.3555C9.70101 49.3555 12.1746 51.5972 12.1746 55.1143C12.1746 58.6314 9.66236 60.8731 6.26118 60.8731C2.82136 60.8731 0.347778 58.6314 0.347778 55.1143C0.347778 51.5972 2.82136 49.3555 6.26118 49.3555Z" fill="#304981"/>
<path d="M16.6193 54.1866H18.0493C18.9382 54.1866 20.0977 54.148 20.0977 52.9499C20.0977 51.829 19.0928 51.6744 18.2425 51.6744H16.6193V54.1866ZM14.1843 49.626H18.4358C20.6775 49.626 22.5713 50.399 22.5713 52.9499C22.5713 54.4958 21.7597 55.694 20.2137 55.9645L22.9965 60.6025H20.0977L17.8174 56.1964H16.6193V60.6025H14.1843V49.626Z" fill="#304981"/>
<path d="M27.016 49.626H24.5811V60.6025H27.016V49.626Z" fill="#304981"/>
<path d="M39.4999 59.8295C38.0699 60.5639 36.4852 60.8731 34.9006 60.8731C31.4608 60.8731 28.9872 58.6314 28.9872 55.1143C28.9872 51.5972 31.4994 49.3555 34.9006 49.3555C36.6398 49.3555 38.1858 49.742 39.268 50.7855L37.5674 52.6407C36.9104 51.945 36.1374 51.5972 34.9006 51.5972C32.8522 51.5972 31.4994 53.1045 31.4994 55.1143C31.4994 57.1627 32.8522 58.6701 34.9006 58.6701C35.9441 58.6701 36.7171 58.3608 37.1809 58.129V56.3511H35.2098V54.1094H39.4999V59.8295Z" fill="#304981"/>
<path d="M44.4083 49.626H41.9734V60.6025H44.4083V49.626Z" fill="#304981"/>
<path d="M46.9592 49.626H50.2445L54.9211 57.2786H54.9597V49.626H57.3946V60.6025H54.2254L49.4328 52.7953H49.3942V60.6025H46.9592V49.626Z" fill="#304981"/>
<path d="M64.5061 52.8339L63.192 56.2351H65.8589L64.5061 52.8339ZM63.5785 49.626H65.5883L70.3422 60.6025H67.6368L66.7092 58.2835H62.4577L61.5301 60.6025H58.8633L63.5785 49.626Z" fill="#304981"/>
<path d="M71.9269 49.626H74.3618V58.3995H78.8452V60.6025H71.9269V49.626Z" fill="#304981"/>
<path d="M32.6976 68.9122H34.1276C35.0165 68.9122 36.176 68.8735 36.176 67.6754C36.176 66.5932 35.1711 66.3999 34.3208 66.3999H32.7362V68.9122H32.6976ZM30.3013 64.3901H34.5527C36.7944 64.3901 38.6883 65.1631 38.6883 67.714C38.6883 69.26 37.8766 70.4581 36.3306 70.7287L39.1134 75.3667H36.2147L33.9343 70.9606H32.7362V75.3667H30.3399V64.3901H30.3013Z" fill="#304981"/>
<path d="M44.1764 64.3901H41.7802V75.3667H44.1764V64.3901Z" fill="#304981"/>
<path d="M46.8818 64.3901H50.1671L54.805 72.0041H54.8437V64.3901H57.2786V75.3667H54.1093L49.3168 67.5594H49.2781V75.3667H46.8818V64.3901Z" fill="#304981"/>
<path d="M59.9456 64.3901H67.4049V66.6318H62.3418V68.6416H67.1344V70.8833H62.3418V73.125H67.6755V75.3667H59.9456V64.3901Z" fill="#304981"/>
<path d="M76.6036 67.0572C76.2171 66.5547 75.4441 66.3228 74.8643 66.3228C74.1686 66.3228 73.2411 66.632 73.2411 67.4437C73.2411 69.4534 78.3042 68.1394 78.3042 72.0043C78.3042 74.4393 76.333 75.5987 74.0913 75.5987C72.7 75.5987 71.4245 75.1736 70.381 74.2074L72.1202 72.3135C72.6227 72.9706 73.4343 73.3571 74.2073 73.3571C75.0189 73.3571 75.8692 72.9706 75.8692 72.1976C75.8692 70.1878 70.7288 71.27 70.7288 67.5983C70.7288 65.2406 72.7773 64.0425 74.903 64.0425C76.1398 64.0425 77.3379 64.3903 78.2655 65.202L76.6036 67.0572Z" fill="#304981"/>
</svg>
