<svg width="20" height="18" viewBox="0 0 20 18" fill="none" xmlns="http://www.w3.org/2000/svg">
<path d="M8.31311 8.56549L16.2531 0.625488L18.3741 2.74649L16.9601 4.16049L19.0811 6.28149L15.5461 9.81749L13.4251 7.69649L10.4351 10.6865C10.9857 11.7458 11.1392 12.9671 10.868 14.1297C10.5968 15.2923 9.91867 16.3195 8.95621 17.0259C7.99375 17.7322 6.81041 18.071 5.61997 17.9811C4.42954 17.8911 3.31053 17.3784 2.46511 16.5355C1.61926 15.691 1.10392 14.5714 1.01247 13.3797C0.921014 12.188 1.2595 11.0029 1.96659 10.0392C2.67368 9.07555 3.70258 8.39706 4.86685 8.12671C6.03113 7.85635 7.25373 8.01202 8.31311 8.56549ZM7.41411 14.4135C7.60513 14.229 7.75749 14.0083 7.86231 13.7643C7.96713 13.5203 8.0223 13.2578 8.02461 12.9923C8.02692 12.7267 7.97631 12.4634 7.87575 12.2176C7.77519 11.9718 7.62669 11.7485 7.4389 11.5607C7.25111 11.3729 7.02781 11.2244 6.78202 11.1238C6.53622 11.0233 6.27287 10.9727 6.00731 10.975C5.74175 10.9773 5.47931 11.0325 5.2353 11.1373C4.99129 11.2421 4.7706 11.3945 4.58611 11.5855C4.22179 11.9627 4.0202 12.4679 4.02476 12.9923C4.02932 13.5167 4.23966 14.0183 4.61047 14.3891C4.98129 14.7599 5.48291 14.9703 6.00731 14.9748C6.5317 14.9794 7.0369 14.7778 7.41411 14.4135Z" fill="white"/>
</svg>
