<svg width="16" height="18" viewBox="0 0 16 18" fill="none" xmlns="http://www.w3.org/2000/svg">
<path d="M15.1834 6.04134C14.3084 2.19134 10.9501 0.458008 8.00008 0.458008C8.00008 0.458008 8.00008 0.458008 7.99175 0.458008C5.05008 0.458008 1.68341 2.18301 0.808413 6.03301C-0.166587 10.333 2.46675 13.9747 4.85008 16.2663C5.73341 17.1163 6.86675 17.5413 8.00008 17.5413C9.13341 17.5413 10.2667 17.1163 11.1417 16.2663C13.5251 13.9747 16.1584 10.3413 15.1834 6.04134ZM8.00008 10.2163C6.55008 10.2163 5.37508 9.04134 5.37508 7.59134C5.37508 6.14134 6.55008 4.96634 8.00008 4.96634C9.45008 4.96634 10.6251 6.14134 10.6251 7.59134C10.6251 9.04134 9.45008 10.2163 8.00008 10.2163Z" fill="white"/>
</svg>
