<svg width="64" height="64" viewBox="0 0 64 64" fill="none" xmlns="http://www.w3.org/2000/svg">
<circle cx="32" cy="32" r="32" fill="#191C20" fill-opacity="0.2"/>
<circle cx="32" cy="32" r="24" stroke="white" stroke-width="1.5"/>
<path d="M32.75 24C32.75 23.5858 32.4142 23.25 32 23.25C31.5858 23.25 31.25 23.5858 31.25 24L32.75 24ZM31.4697 39.5303C31.7626 39.8232 32.2374 39.8232 32.5303 39.5303L37.3033 34.7574C37.5962 34.4645 37.5962 33.9896 37.3033 33.6967C37.0104 33.4038 36.5355 33.4038 36.2426 33.6967L32 37.9393L27.7574 33.6967C27.4645 33.4038 26.9896 33.4038 26.6967 33.6967C26.4038 33.9896 26.4038 34.4645 26.6967 34.7574L31.4697 39.5303ZM31.25 24L31.25 39L32.75 39L32.75 24L31.25 24Z" fill="white"/>
</svg>
