<svg width="61" height="46" viewBox="0 0 61 46" fill="none" xmlns="http://www.w3.org/2000/svg">
<path d="M48.4065 46C43.2903 46 39.4204 44.0529 36.7968 40.1587C34.5667 36.873 33.4516 32.8571 33.4516 28.1111C33.4516 22.0265 35.0914 16.5503 38.371 11.6825C41.7817 6.81481 46.8979 2.92064 53.7194 0L55.4903 3.28571C51.4237 4.86772 47.8817 7.36244 44.8645 10.7698C41.9785 14.1772 40.5355 17.6455 40.5355 21.1746C40.5355 22.6349 40.7323 23.9127 41.1258 25.0079C43.2247 23.4259 45.6516 22.6349 48.4065 22.6349C51.9484 22.6349 54.9 23.7302 57.2613 25.9206C59.7538 27.9894 61 30.7884 61 34.3175C61 37.6032 59.7538 40.4021 57.2613 42.7143C54.9 44.9048 51.9484 46 48.4065 46ZM14.9548 46C9.83871 46 5.96882 44.0529 3.34516 40.1587C1.11505 36.873 0 32.8571 0 28.1111C0 22.0265 1.63979 16.5503 4.91936 11.6825C8.33011 6.81481 13.4462 2.92064 20.2677 0L22.0387 3.28571C17.972 4.86772 14.4301 7.36244 11.4129 10.7698C8.52688 14.1772 7.08387 17.6455 7.08387 21.1746C7.08387 22.6349 7.28065 23.9127 7.67419 25.0079C9.77312 23.4259 12.2 22.6349 14.9548 22.6349C18.4968 22.6349 21.4484 23.7302 23.8097 25.9206C26.3022 27.9894 27.5484 30.7884 27.5484 34.3175C27.5484 37.6032 26.3022 40.4021 23.8097 42.7143C21.4484 44.9048 18.4968 46 14.9548 46Z" fill="#CCCCCC"/>
</svg>
