<svg width="25" height="16" viewBox="0 0 25 16" fill="none" xmlns="http://www.w3.org/2000/svg">
<path d="M1.08447 7C0.532188 7 0.0844727 7.44772 0.0844727 8C0.0844727 8.55228 0.532188 9 1.08447 9V7ZM23.8761 8.70711C24.2666 8.31658 24.2666 7.68342 23.8761 7.29289L17.5121 0.928932C17.1216 0.538408 16.4884 0.538408 16.0979 0.928932C15.7074 1.31946 15.7074 1.95262 16.0979 2.34315L21.7548 8L16.0979 13.6569C15.7074 14.0474 15.7074 14.6805 16.0979 15.0711C16.4884 15.4616 17.1216 15.4616 17.5121 15.0711L23.8761 8.70711ZM1.08447 9H23.169V7H1.08447V9Z" fill="#CA342E"/>
</svg>
