<svg width="25" height="16" viewBox="0 0 25 16" fill="none" xmlns="http://www.w3.org/2000/svg">
<path d="M23.0845 9C23.6368 9 24.0845 8.55228 24.0845 8C24.0845 7.44772 23.6368 7 23.0845 7L23.0845 9ZM0.292858 7.29289C-0.0976658 7.68342 -0.0976658 8.31658 0.292858 8.7071L6.65682 15.0711C7.04734 15.4616 7.68051 15.4616 8.07103 15.0711C8.46156 14.6805 8.46156 14.0474 8.07103 13.6569L2.41418 8L8.07103 2.34314C8.46156 1.95262 8.46156 1.31946 8.07103 0.928931C7.68051 0.538406 7.04734 0.538406 6.65682 0.928931L0.292858 7.29289ZM23.0845 7L0.999966 7L0.999966 9L23.0845 9L23.0845 7Z" fill="#191C20"/>
</svg>
