<svg width="30" height="30" viewBox="0 0 30 30" fill="none" xmlns="http://www.w3.org/2000/svg">
<path d="M12.6374 13.9375H9.32488C8.53738 13.9375 7.8999 14.5749 7.8999 15.3624V21.7624H12.6374V13.9375V13.9375Z" stroke="#191C20" stroke-width="1.5" stroke-miterlimit="10" stroke-linecap="round" stroke-linejoin="round"/>
<path d="M15.9515 8.25H14.0514C13.2639 8.25 12.6265 8.88752 12.6265 9.67502V21.7501H17.364V9.67502C17.364 8.88752 16.739 8.25 15.9515 8.25Z" stroke="#191C20" stroke-width="1.5" stroke-miterlimit="10" stroke-linecap="round" stroke-linejoin="round"/>
<path d="M20.6851 16.0625H17.3726V21.7501H22.1101V17.4875C22.0976 16.7 21.4601 16.0625 20.6851 16.0625Z" stroke="#191C20" stroke-width="1.5" stroke-miterlimit="10" stroke-linecap="round" stroke-linejoin="round"/>
<path d="M11.25 27.5H18.75C25 27.5 27.5 25 27.5 18.75V11.25C27.5 5 25 2.5 18.75 2.5H11.25C5 2.5 2.5 5 2.5 11.25V18.75C2.5 25 5 27.5 11.25 27.5Z" stroke="#191C20" stroke-width="1.5" stroke-linecap="round" stroke-linejoin="round"/>
</svg>
